<svg version="1.1" baseProfile="full" xmlns="http://www.w3.org/2000/svg" xmlns:xlink="http://www.w3.org/1999/xlink" xmlns:rdf="http://www.w3.org/1999/02/22-rdf-syntax-ns#" xmlns:dc="http://purl.org/dc/elements/1.1/" stroke-linecap="round" stroke-linejoin="round" fill-rule="evenodd" width="250" height="150" viewBox="0 0 5000 3000"><metadata><rdf:RDF><rdf:Description><dc:description>MSS/MilX-Export to SVG</dc:description><dc:publisher>gs-soft AG</dc:publisher></rdf:Description></rdf:RDF></metadata><defs><filter id="ef0" x="-30%" y="-30%" width="200%" height="200%"><feGaussianBlur in="SourceAlpha" stdDeviation="40" result="gb"/><feFlood result="fl" flood-color="gray"/><feComposite result="cm" in="fl" in2="gb" operator="in"/><feOffset in="cm" dx="76" dy="76"/></filter><mask id="cr0" maskUnits="userSpaceOnUse" x="0" y="0" width="5000" height="3000" fill-rule="nonzero"><use xlink:href="#cp0" fill="white"/></mask><ellipse id="cp0" cx="45" cy="45" rx="45" ry="45" transform="matrix(30 0 0 30 1060 60)"/><style type="text/css">.ss0 {fill:rgb(128,224,255);stroke:black;stroke-width:40;}.ss1 {fill:white;stroke:white;stroke-width:26;}.ps0 {fill:none;stroke:black;stroke-width:26;}</style></defs><g><use xlink:href="#eg0" style="filter:url(#ef0)"/></g><g id="eg0"><g transform="matrix(2.26572 0 0 2.26761 1060 60)"><ellipse cx="600" cy="600" rx="600" ry="600" class="ss0"/></g><g mask="url(#cr0)"><g transform="matrix(2.26572 0 0 2.26761 1060 60)"><polygon points="487,373 977,373 977,600 977,600 977,826 222,826 222,600 487,600 487,373" class="ss1"/><path d="M781.000,825.000 A89.000,89.000 0.000 1,0 959.000,825.000Z" fill-rule="evenodd" class="ss1"/><path d="M237.000,825.000 A89.500,89.000 0.000 1,0 416.000,825.000Z" fill-rule="evenodd" class="ss1"/><polyline points="236,826 222,826 222,600 487,600 487,373 977,373 977,826 961,826" class="ps0"/><polyline points="419,826 781,826" class="ps0"/><polyline points="524,411 675,411 675,600 524,600 524,411" class="ps0"/><path d="M237.000,825.000 A89.500,89.000 0.000 1,0 416.000,825.000" fill-rule="evenodd" class="ps0"/><path d="M416.000,825.000 A89.500,89.000 0.000 1,0 237.000,825.000" fill-rule="evenodd" class="ps0"/><path d="M781.000,825.000 A89.000,89.000 0.000 1,0 959.000,825.000" fill-rule="evenodd" class="ps0"/><path d="M959.000,825.000 A89.000,89.000 0.000 1,0 781.000,825.000" fill-rule="evenodd" class="ps0"/><polyline points="1093,695 979,695" class="ps0"/><polyline points="1094,592 1094,794" class="ps0"/></g></g></g></svg>