<svg version="1.1" baseProfile="full" xmlns="http://www.w3.org/2000/svg" xmlns:xlink="http://www.w3.org/1999/xlink" xmlns:rdf="http://www.w3.org/1999/02/22-rdf-syntax-ns#" xmlns:dc="http://purl.org/dc/elements/1.1/" stroke-linecap="round" stroke-linejoin="round" fill-rule="evenodd" width="250" height="150" viewBox="0 0 5000 3000"><metadata><rdf:RDF><rdf:Description><dc:description>MSS/MilX-Export to SVG</dc:description><dc:publisher>gs-soft AG</dc:publisher></rdf:Description></rdf:RDF></metadata><defs><filter id="ef0" x="-30%" y="-30%" width="200%" height="200%"><feGaussianBlur in="SourceAlpha" stdDeviation="40" result="gb"/><feFlood result="fl" flood-color="gray"/><feComposite result="cm" in="fl" in2="gb" operator="in"/><feOffset in="cm" dx="76" dy="76"/></filter><mask id="cr0" maskUnits="userSpaceOnUse" x="0" y="0" width="5000" height="3000" fill-rule="nonzero"><use xlink:href="#cp0" fill="white"/></mask><ellipse id="cp0" cx="45" cy="45" rx="45" ry="45" transform="matrix(30 0 0 30 1060 60)"/><style type="text/css">.ss0 {fill:rgb(128,224,255);stroke:black;stroke-width:40;}.ss1 {fill:rgb(254,254,254);stroke:black;stroke-width:26;}.ss2 {fill:black;stroke:black;stroke-width:26;}</style></defs><g><use xlink:href="#eg0" style="filter:url(#ef0)"/></g><g id="eg0"><g transform="matrix(2.26572 0 0 2.26761 1060 60)"><ellipse cx="600" cy="600" rx="600" ry="600" class="ss0"/></g><g mask="url(#cr0)"><g transform="matrix(2.26572 0 0 2.26761 1060 60)"><polygon points="731,201 747,267 763,365 763,447 731,545 681,610 600,692 600,692 469,758 354,815 354,750 469,692 567,635 665,529 698,463 714,365 731,201" class="ss1"/><polygon points="469,201 452,267 436,365 436,447 469,545 518,610 600,692 600,692 731,758 845,815 845,750 731,692 632,635 534,529 502,463 485,365 469,201" class="ss1"/><polygon points="845,750 1009,815 987,880 911,897 861,872 821,815 845,823 870,864 911,885 981,867 986,840 960,848 878,815 845,823 845,823 821,815" class="ss2"/><polygon points="354,750 191,815 212,880 289,897 338,872 379,815 354,823 330,864 289,885 218,867 214,840 240,848 322,815 354,823 354,823 379,815" class="ss2"/></g></g></g></svg>