<svg version="1.1" baseProfile="full" xmlns="http://www.w3.org/2000/svg" xmlns:xlink="http://www.w3.org/1999/xlink" xmlns:rdf="http://www.w3.org/1999/02/22-rdf-syntax-ns#" xmlns:dc="http://purl.org/dc/elements/1.1/" stroke-linecap="round" stroke-linejoin="round" fill-rule="evenodd" width="250" height="150" viewBox="0 0 5000 3000"><metadata><rdf:RDF><rdf:Description><dc:description>MSS/MilX-Export to SVG</dc:description><dc:publisher>gs-soft AG</dc:publisher></rdf:Description></rdf:RDF></metadata><defs><filter id="ef0" x="-30%" y="-30%" width="200%" height="200%"><feGaussianBlur in="SourceAlpha" stdDeviation="40" result="gb"/><feFlood result="fl" flood-color="gray"/><feComposite result="cm" in="fl" in2="gb" operator="in"/><feOffset in="cm" dx="76" dy="76"/></filter><mask id="cr0" maskUnits="userSpaceOnUse" x="0" y="0" width="5000" height="3000" fill-rule="nonzero"><use xlink:href="#cp0" fill="white"/></mask><ellipse id="cp0" cx="45" cy="45" rx="45" ry="45" transform="matrix(30 0 0 30 1060 60)"/><style type="text/css">.ss0 {fill:rgb(128,224,255);stroke:black;stroke-width:40;}.ps0 {fill:none;stroke:black;stroke-width:26;}.ts0 {font-family:Arial;font-size:212px;font-weight:bold;fill:black;text-anchor:middle;}.ts1 {font-family:Arial;font-size:210px;font-weight:bold;fill:black;text-anchor:middle;}</style></defs><g><use xlink:href="#eg0" style="filter:url(#ef0)"/></g><g id="eg0"><g transform="matrix(2.26572 0 0 2.26761 1060 60)"><ellipse cx="600" cy="600" rx="600" ry="600" class="ss0"/></g><g mask="url(#cr0)"><g transform="matrix(2.26572 0 0 2.26761 1060 60)"><path d="M373.000,323.022 A175.500,215.000 0.000 1,0 373.000,752.978" fill-rule="evenodd" class="ps0"/><polyline points="368,323 532,324 832,323" class="ps0"/><polyline points="368,753 532,752 832,753" class="ps0"/><path d="M832.000,752.968 A175.000,215.000 0.000 0,0 832.000,323.032" fill-rule="evenodd" class="ps0"/><polyline points="208,754 991,754" class="ps0"/><ellipse cx="272" cy="814" rx="64" ry="60" class="ps0"/><ellipse cx="924" cy="814" rx="64" ry="60" class="ps0"/><text x="600" y="515" dy="1em" class="ts0">SPT</text><text x="600" y="322" dy="1em" class="ts1">MSL</text></g></g></g></svg>