<svg version="1.1" baseProfile="full" xmlns="http://www.w3.org/2000/svg" xmlns:xlink="http://www.w3.org/1999/xlink" xmlns:rdf="http://www.w3.org/1999/02/22-rdf-syntax-ns#" xmlns:dc="http://purl.org/dc/elements/1.1/" stroke-linecap="round" stroke-linejoin="round" fill-rule="evenodd" width="250" height="150" viewBox="0 0 5000 3000"><metadata><rdf:RDF><rdf:Description><dc:description>MSS/MilX-Export to SVG</dc:description><dc:publisher>gs-soft AG</dc:publisher></rdf:Description></rdf:RDF></metadata><defs><filter id="ef0" x="-30%" y="-30%" width="200%" height="200%"><feGaussianBlur in="SourceAlpha" stdDeviation="40" result="gb"/><feFlood result="fl" flood-color="gray"/><feComposite result="cm" in="fl" in2="gb" operator="in"/><feOffset in="cm" dx="76" dy="76"/></filter><mask id="cr0" maskUnits="userSpaceOnUse" x="0" y="0" width="5000" height="3000" fill-rule="nonzero"><use xlink:href="#cp0" fill="white"/></mask><ellipse id="cp0" cx="45" cy="45" rx="45" ry="45" transform="matrix(30 0 0 30 1060 60)"/><style type="text/css">.ss0 {fill:rgb(128,224,255);stroke:black;stroke-width:40;}.ps0 {fill:none;stroke:black;stroke-width:26;}</style></defs><g><use xlink:href="#eg0" style="filter:url(#ef0)"/></g><g id="eg0"><g transform="matrix(2.26572 0 0 2.26761 1060 60)"><ellipse cx="600" cy="600" rx="600" ry="600" class="ss0"/></g><g mask="url(#cr0)"><g transform="matrix(2.26572 0 0 2.26761 1060 60)"><path d="M291,360 C538,480 661,480 908,360" fill-rule="evenodd" class="ps0"/><polyline points="291,360 291,838 908,838 908,360" class="ps0"/><polyline points="395,753 395,534 806,534 806,753" class="ps0"/><polyline points="600,534 600,691" class="ps0"/><ellipse cx="871" cy="892" rx="54" ry="54" class="ps0"/><ellipse cx="326" cy="892" rx="54" ry="54" class="ps0"/></g></g></g></svg>