<svg version="1.1" baseProfile="full" xmlns="http://www.w3.org/2000/svg" xmlns:xlink="http://www.w3.org/1999/xlink" xmlns:rdf="http://www.w3.org/1999/02/22-rdf-syntax-ns#" xmlns:dc="http://purl.org/dc/elements/1.1/" stroke-linecap="round" stroke-linejoin="round" fill-rule="evenodd" width="250" height="150" viewBox="0 0 5000 3000"><metadata><rdf:RDF><rdf:Description><dc:description>MSS/MilX-Export to SVG</dc:description><dc:publisher>gs-soft AG</dc:publisher></rdf:Description></rdf:RDF></metadata><defs><filter id="ef0" x="-30%" y="-30%" width="200%" height="200%"><feGaussianBlur in="SourceAlpha" stdDeviation="40" result="gb"/><feFlood result="fl" flood-color="gray"/><feComposite result="cm" in="fl" in2="gb" operator="in"/><feOffset in="cm" dx="76" dy="76"/></filter><mask id="cr0" maskUnits="userSpaceOnUse" x="0" y="0" width="5000" height="3000" fill-rule="nonzero"><use xlink:href="#cp0" fill="white"/></mask><polygon id="cp0" points="1052,1422 2422,52 3819,1422 2422,2819" shape-rendering="crispEdges"/><style type="text/css">.ss0 {fill:rgb(255,128,128);stroke:black;stroke-width:40;}.ps0 {fill:none;stroke:black;stroke-width:26;}.ts0 {font-family:Arial;font-size:333px;font-weight:bold;fill:black;text-anchor:middle;}</style></defs><g><use xlink:href="#eg0" style="filter:url(#ef0)"/></g><g id="eg0"><g transform="matrix(1.95354 0 0 1.95492 1051.72 51.7241)"><polygon points="0,707 707,0 1414,707 707,1414" class="ss0"/></g><g mask="url(#cr0)"><g transform="matrix(1.95354 0 0 1.95492 1051.72 51.7241)"><path d="M487.000,462.033 A170.000,209.000 0.000 1,0 487.000,879.967" fill-rule="evenodd" class="ps0"/><polyline points="481,462 641,463 932,462" class="ps0"/><polyline points="481,880 641,879 932,880" class="ps0"/><path d="M932.000,879.978 A170.500,209.000 0.000 0,0 932.000,462.022" fill-rule="evenodd" class="ps0"/><polyline points="315,881 1098,881" class="ps0"/><ellipse cx="379" cy="942" rx="64" ry="61" class="ps0"/><ellipse cx="1031" cy="942" rx="64" ry="61" class="ps0"/><text x="707" y="483" dy="1em" class="ts0">A</text></g></g></g></svg>