<svg version="1.1" baseProfile="full" xmlns="http://www.w3.org/2000/svg" xmlns:xlink="http://www.w3.org/1999/xlink" xmlns:rdf="http://www.w3.org/1999/02/22-rdf-syntax-ns#" xmlns:dc="http://purl.org/dc/elements/1.1/" stroke-linecap="round" stroke-linejoin="round" fill-rule="evenodd" width="250" height="150" viewBox="0 0 5000 3000"><metadata><rdf:RDF><rdf:Description><dc:description>MSS/MilX-Export to SVG</dc:description><dc:publisher>gs-soft AG</dc:publisher></rdf:Description></rdf:RDF></metadata><defs><filter id="ef0" x="-30%" y="-30%" width="200%" height="200%"><feGaussianBlur in="SourceAlpha" stdDeviation="40" result="gb"/><feFlood result="fl" flood-color="gray"/><feComposite result="cm" in="fl" in2="gb" operator="in"/><feOffset in="cm" dx="76" dy="76"/></filter><mask id="cr0" maskUnits="userSpaceOnUse" x="0" y="0" width="5000" height="3000" fill-rule="nonzero"><use xlink:href="#cp0" fill="white"/></mask><polygon id="cp0" points="1256,2804 1256,1234 2434,56 3584,1234 3584,2804" shape-rendering="crispEdges"/><style type="text/css">.bs0 {fill:rgb(255,128,128);stroke:none;}.ps0 {fill:none;stroke:black;stroke-width:40;}.bs1 {fill:black;stroke:none;}</style></defs><g><use xlink:href="#eg0" style="filter:url(#ef0)"/></g><g id="eg0"><g transform="matrix(2.11802 0 0 2.11929 1256.09 56.0748)"><polygon points="0,1300 0,550 550,0 1100,550 1100,1300" class="bs0"/><polyline points="0,1300 0,550 550,0 1100,550 1100,1300" class="ps0"/></g><g mask="url(#cr0)"><g transform="matrix(2.11802 0 0 2.11929 1256.09 56.0748)"><polygon points="549,436 570,441 590,456 600,486 600,1188 549,1238 499,1188 499,486 509,456 529,441" class="bs1"/><polygon points="549,606 164,1007 154,1067 549,827" class="bs1"/><polygon points="549,1037 700,1218 700,1238 549,1188" class="bs1"/><polygon points="552,1037 401,1218 401,1238 552,1188" class="bs1"/><polygon points="552,606 937,1007 947,1067 552,827" class="bs1"/></g></g></g></svg>