<svg version="1.1" baseProfile="full" xmlns="http://www.w3.org/2000/svg" xmlns:xlink="http://www.w3.org/1999/xlink" xmlns:rdf="http://www.w3.org/1999/02/22-rdf-syntax-ns#" xmlns:dc="http://purl.org/dc/elements/1.1/" stroke-linecap="round" stroke-linejoin="round" fill-rule="evenodd" width="250" height="150" viewBox="0 0 5000 3000"><metadata><rdf:RDF><rdf:Description><dc:description>MSS/MilX-Export to SVG</dc:description><dc:publisher>gs-soft AG</dc:publisher></rdf:Description></rdf:RDF></metadata><defs><filter id="ef0" x="-30%" y="-30%" width="200%" height="200%"><feGaussianBlur in="SourceAlpha" stdDeviation="40" result="gb"/><feFlood result="fl" flood-color="gray"/><feComposite result="cm" in="fl" in2="gb" operator="in"/><feOffset in="cm" dx="76" dy="76"/></filter><mask id="cr0" maskUnits="userSpaceOnUse" x="0" y="0" width="5000" height="3000" fill-rule="nonzero"><use xlink:href="#cp0" fill="white"/></mask><polygon id="cp0" points="1052,1422 2422,52 3819,1422 2422,2819" shape-rendering="crispEdges"/><style type="text/css">.ss0 {fill:rgb(255,128,128);stroke:black;stroke-width:40;}.ss1 {fill:rgb(254,254,254);stroke:black;stroke-width:26;}.ss2 {fill:black;stroke:black;stroke-width:26;}</style></defs><g><use xlink:href="#eg0" style="filter:url(#ef0)"/></g><g id="eg0"><g transform="matrix(1.95354 0 0 1.95492 1051.72 51.7241)"><polygon points="0,707 707,0 1414,707 707,1414" class="ss0"/></g><g mask="url(#cr0)"><g transform="matrix(1.95354 0 0 1.95492 1051.72 51.7241)"><polygon points="838,249 854,314 870,412 870,494 838,592 788,658 707,740 707,740 576,805 461,862 461,797 576,740 674,682 772,576 805,511 821,412 838,249" class="ss1"/><polygon points="576,249 559,314 543,412 543,494 576,592 625,658 707,740 707,740 838,805 952,862 952,797 838,740 739,682 641,576 609,511 592,412 576,249" class="ss1"/><polygon points="952,797 1116,862 1094,928 1018,944 968,920 928,862 952,871 977,911 1018,933 1088,915 1093,887 1067,895 985,862 952,871 952,871 928,862" class="ss2"/><polygon points="461,797 298,862 319,928 396,944 445,920 486,862 461,871 437,911 396,933 325,915 321,887 347,895 429,862 461,871 461,871 486,862" class="ss2"/></g></g></g></svg>