<svg version="1.1" baseProfile="full" xmlns="http://www.w3.org/2000/svg" xmlns:xlink="http://www.w3.org/1999/xlink" xmlns:rdf="http://www.w3.org/1999/02/22-rdf-syntax-ns#" xmlns:dc="http://purl.org/dc/elements/1.1/" stroke-linecap="round" stroke-linejoin="round" fill-rule="evenodd" width="250" height="150" viewBox="0 0 5000 3000"><metadata><rdf:RDF><rdf:Description><dc:description>MSS/MilX-Export to SVG</dc:description><dc:publisher>gs-soft AG</dc:publisher></rdf:Description></rdf:RDF></metadata><defs><filter id="ef0" x="-30%" y="-30%" width="200%" height="200%"><feGaussianBlur in="SourceAlpha" stdDeviation="40" result="gb"/><feFlood result="fl" flood-color="gray"/><feComposite result="cm" in="fl" in2="gb" operator="in"/><feOffset in="cm" dx="76" dy="76"/></filter><mask id="cr0" maskUnits="userSpaceOnUse" x="0" y="0" width="5000" height="3000" fill-rule="nonzero"><use xlink:href="#cp0" fill="white"/></mask><polygon id="cp0" points="1244,1644 2423,467 3624,1644 2423,2844" shape-rendering="crispEdges"/><style type="text/css">.ss0 {fill:rgb(255,128,128);stroke:black;stroke-width:40;}.bs0 {fill:black;stroke:none;}.ps0 {fill:none;stroke:black;stroke-width:26;}</style></defs><g><use xlink:href="#eg0" style="filter:url(#ef0)"/></g><g id="eg0"><g transform="matrix(1.68004 0 0 1.67978 1244.48 463.556)"><polygon points="0,707 707,0 1414,707 707,1414" class="ss0"/></g><g transform="matrix(1.68145 0 0 1.6798 2013.59 44.4444)"><polygon points="250,250 470,470 470,50 30,50 30,470" class="bs0"/></g><g mask="url(#cr0)"><g transform="matrix(1.68004 0 0 1.67978 1244.48 463.556)"><polyline points="344,452 1070,963" class="ps0"/><polyline points="1070,452 344,963" class="ps0"/></g></g></g></svg>