<svg version="1.1" baseProfile="full" xmlns="http://www.w3.org/2000/svg" xmlns:xlink="http://www.w3.org/1999/xlink" xmlns:rdf="http://www.w3.org/1999/02/22-rdf-syntax-ns#" xmlns:dc="http://purl.org/dc/elements/1.1/" stroke-linecap="round" stroke-linejoin="round" fill-rule="evenodd" width="250" height="150" viewBox="0 0 5000 3000"><metadata><rdf:RDF><rdf:Description><dc:description>MSS/MilX-Export to SVG</dc:description><dc:publisher>gs-soft AG</dc:publisher></rdf:Description></rdf:RDF></metadata><defs><filter id="ef0" x="-30%" y="-30%" width="200%" height="200%"><feGaussianBlur in="SourceAlpha" stdDeviation="40" result="gb"/><feFlood result="fl" flood-color="gray"/><feComposite result="cm" in="fl" in2="gb" operator="in"/><feOffset in="cm" dx="76" dy="76"/></filter><mask id="cr0" maskUnits="userSpaceOnUse" x="0" y="0" width="5000" height="3000" fill-rule="nonzero"><use xlink:href="#cp0" fill="white"/></mask><polygon id="cp0" points="1065,65 3772,65 3772,2772 1065,2772" shape-rendering="crispEdges"/><style type="text/css">.ss0 {fill:rgb(170,255,170);stroke:black;stroke-width:40;}.ss1 {fill:rgb(254,254,254);stroke:black;stroke-width:26;}.ss2 {fill:black;stroke:black;stroke-width:26;}</style></defs><g><use xlink:href="#eg0" style="filter:url(#ef0)"/></g><g id="eg0"><g transform="matrix(2.46281 0 0 2.46505 1065.22 65.2174)"><rect x="0" y="0" width="1100" height="1100" class="ss0"/></g><g mask="url(#cr0)"><g transform="matrix(2.46281 0 0 2.46505 1065.22 65.2174)"><polygon points="681,222 697,288 713,386 713,468 681,566 631,631 550,713 550,713 419,779 304,836 304,771 419,713 517,656 615,550 648,484 664,386 681,222" class="ss1"/><polygon points="419,222 402,288 386,386 386,468 419,566 468,631 550,713 550,713 681,779 795,836 795,771 681,713 582,656 484,550 452,484 435,386 419,222" class="ss1"/><polygon points="795,771 959,836 937,901 861,918 811,893 771,836 795,844 820,885 861,906 931,888 936,861 910,869 828,836 795,844 795,844 771,836" class="ss2"/><polygon points="304,771 141,836 162,901 239,918 288,893 329,836 304,844 280,885 239,906 168,888 164,861 190,869 272,836 304,844 304,844 329,836" class="ss2"/></g></g></g></svg>