<svg version="1.1" baseProfile="full" xmlns="http://www.w3.org/2000/svg" xmlns:xlink="http://www.w3.org/1999/xlink" xmlns:rdf="http://www.w3.org/1999/02/22-rdf-syntax-ns#" xmlns:dc="http://purl.org/dc/elements/1.1/" stroke-linecap="round" stroke-linejoin="round" fill-rule="evenodd" width="250" height="150" viewBox="0 0 5000 3000"><metadata><rdf:RDF><rdf:Description><dc:description>MSS/MilX-Export to SVG</dc:description><dc:publisher>gs-soft AG</dc:publisher></rdf:Description></rdf:RDF></metadata><defs><filter id="ef0" x="-30%" y="-30%" width="200%" height="200%"><feGaussianBlur in="SourceAlpha" stdDeviation="40" result="gb"/><feFlood result="fl" flood-color="gray"/><feComposite result="cm" in="fl" in2="gb" operator="in"/><feOffset in="cm" dx="76" dy="76"/></filter><g id="co0"><use xlink:href="#cp0"/><use xlink:href="#cp1"/></g><mask id="cr0" maskUnits="userSpaceOnUse" x="0" y="0" width="5000" height="3000" fill-rule="nonzero"><use xlink:href="#co0" fill="white"/></mask><polygon id="cp0" points="1180,2790 1180,60 3670,60 3670,2790" shape-rendering="crispEdges"/><polygon id="cp1" points="1180,510 1180,60 3670,60 3670,510" shape-rendering="crispEdges"/><style type="text/css">.bs0 {fill:rgb(170,255,170);stroke:none;}.bs1 {fill:black;stroke:none;}.ps0 {fill:none;stroke:black;stroke-width:40;}.bs2 {fill:black;stroke:none;}.ps1 {fill:none;stroke:black;stroke-width:26;}</style></defs><g><use xlink:href="#eg0" style="filter:url(#ef0)"/></g><g id="eg0"><g transform="matrix(2.26579 0 0 2.26761 1180 60)"><polygon points="0,1200 0,0 1100,0 1100,1200" class="bs0"/><polygon points="0,200 0,0 1100,0 1100,200" class="bs1"/><polyline points="0,1200 0,0 1100,0 1100,1200" class="ps0"/></g><g mask="url(#cr0)"><g transform="matrix(2.26579 0 0 2.26761 1180 60)"><polygon points="199,421 199,953 402,953 402,421" class="bs2"/><polygon points="455,464 455,903 645,903 645,464" class="bs2"/><polygon points="901,421 901,953 699,953 699,421" class="bs2"/><polyline points="367,688 477,688" class="ps1"/><polyline points="623,688 733,688" class="ps1"/><polyline points="550,903 550,1003" class="ps1"/><path d="M739.896,1036.237 A512.000,466.000 0.000 0,0 360.104,1036.237" fill-rule="evenodd" class="ps1"/></g></g></g></svg>