<svg version="1.1" baseProfile="full" xmlns="http://www.w3.org/2000/svg" xmlns:xlink="http://www.w3.org/1999/xlink" xmlns:rdf="http://www.w3.org/1999/02/22-rdf-syntax-ns#" xmlns:dc="http://purl.org/dc/elements/1.1/" stroke-linecap="round" stroke-linejoin="round" fill-rule="evenodd" width="250" height="150" viewBox="0 0 5000 3000"><metadata><rdf:RDF><rdf:Description><dc:description>MSS/MilX-Export to SVG</dc:description><dc:publisher>gs-soft AG</dc:publisher></rdf:Description></rdf:RDF></metadata><defs><filter id="ef0" x="-30%" y="-30%" width="200%" height="200%"><feGaussianBlur in="SourceAlpha" stdDeviation="40" result="gb"/><feFlood result="fl" flood-color="gray"/><feComposite result="cm" in="fl" in2="gb" operator="in"/><feOffset in="cm" dx="76" dy="76"/></filter><mask id="cr0" maskUnits="userSpaceOnUse" x="0" y="0" width="5000" height="3000" fill-rule="nonzero"><use xlink:href="#cp0" fill="white"/></mask><polygon id="cp0" points="1065,65 3772,65 3772,2772 1065,2772" shape-rendering="crispEdges"/><style type="text/css">.ss0 {fill:rgb(170,255,170);stroke:black;stroke-width:40;}.ps0 {fill:none;stroke:black;stroke-width:26;}</style></defs><g><use xlink:href="#eg0" style="filter:url(#ef0)"/></g><g id="eg0"><g transform="matrix(2.46281 0 0 2.46505 1065.22 65.2174)"><rect x="0" y="0" width="1100" height="1100" class="ss0"/></g><g mask="url(#cr0)"><g transform="matrix(2.46281 0 0 2.46505 1065.22 65.2174)"><path d="M241,310 C488,430 611,430 858,310" fill-rule="evenodd" class="ps0"/><polyline points="241,310 241,788 858,788 858,310" class="ps0"/><polyline points="345,703 345,484 756,484 756,703" class="ps0"/><polyline points="550,484 550,641" class="ps0"/><ellipse cx="821" cy="842" rx="54" ry="54" class="ps0"/><ellipse cx="276" cy="842" rx="54" ry="54" class="ps0"/></g></g></g></svg>