<svg version="1.1" baseProfile="full" xmlns="http://www.w3.org/2000/svg" xmlns:xlink="http://www.w3.org/1999/xlink" xmlns:rdf="http://www.w3.org/1999/02/22-rdf-syntax-ns#" xmlns:dc="http://purl.org/dc/elements/1.1/" stroke-linecap="round" stroke-linejoin="round" fill-rule="evenodd" width="250" height="150" viewBox="0 0 5000 3000"><metadata><rdf:RDF><rdf:Description><dc:description>MSS/MilX-Export to SVG</dc:description><dc:publisher>gs-soft AG</dc:publisher></rdf:Description></rdf:RDF></metadata><defs><filter id="ef0" x="-30%" y="-30%" width="200%" height="200%"><feGaussianBlur in="SourceAlpha" stdDeviation="40" result="gb"/><feFlood result="fl" flood-color="gray"/><feComposite result="cm" in="fl" in2="gb" operator="in"/><feOffset in="cm" dx="76" dy="76"/></filter><mask id="cr0" maskUnits="userSpaceOnUse" x="0" y="0" width="5000" height="3000" fill-rule="nonzero"><use xlink:href="#cp0" fill="white"/></mask><polygon id="cp0" points="1065,65 3772,65 3772,2772 1065,2772" shape-rendering="crispEdges"/><style type="text/css">.ss0 {fill:rgb(170,255,170);stroke:black;stroke-width:40;}.ss1 {fill:black;stroke:black;stroke-width:26;}</style></defs><g><use xlink:href="#eg0" style="filter:url(#ef0)"/></g><g id="eg0"><g transform="matrix(2.46281 0 0 2.46505 1065.22 65.2174)"><rect x="0" y="0" width="1100" height="1100" class="ss0"/></g><g mask="url(#cr0)"><g transform="matrix(2.46281 0 0 2.46505 1065.22 65.2174)"><polygon points="550,132 508,254 399,399 254,508 132,550 254,591 399,700 508,845 550,967 591,845 700,700 845,591 967,550 845,508 700,399 591,254" class="ss1"/></g></g></g></svg>