<svg version="1.1" baseProfile="full" xmlns="http://www.w3.org/2000/svg" xmlns:xlink="http://www.w3.org/1999/xlink" xmlns:rdf="http://www.w3.org/1999/02/22-rdf-syntax-ns#" xmlns:dc="http://purl.org/dc/elements/1.1/" stroke-linecap="round" stroke-linejoin="round" fill-rule="evenodd" width="250" height="150" viewBox="0 0 5000 3000"><metadata><rdf:RDF><rdf:Description><dc:description>MSS/MilX-Export to SVG</dc:description><dc:publisher>gs-soft AG</dc:publisher></rdf:Description></rdf:RDF></metadata><defs><filter id="ef0" x="-30%" y="-30%" width="200%" height="200%"><feGaussianBlur in="SourceAlpha" stdDeviation="40" result="gb"/><feFlood result="fl" flood-color="gray"/><feComposite result="cm" in="fl" in2="gb" operator="in"/><feOffset in="cm" dx="76" dy="76"/></filter><mask id="cr0" maskUnits="userSpaceOnUse" x="0" y="0" width="5000" height="3000" fill-rule="nonzero"><use xlink:href="#cp0" fill="white"/></mask><polygon id="cp0" points="1065,65 3772,65 3772,2772 1065,2772" shape-rendering="crispEdges"/><style type="text/css">.ss0 {fill:rgb(170,255,170);stroke:black;stroke-width:40;}.ps0 {fill:none;stroke:black;stroke-width:26;}.ts0 {font-family:Arial;font-size:212px;font-weight:bold;fill:black;text-anchor:middle;}.ts1 {font-family:Arial;font-size:210px;font-weight:bold;fill:black;text-anchor:middle;}</style></defs><g><use xlink:href="#eg0" style="filter:url(#ef0)"/></g><g id="eg0"><g transform="matrix(2.46281 0 0 2.46505 1065.22 65.2174)"><rect x="0" y="0" width="1100" height="1100" class="ss0"/></g><g mask="url(#cr0)"><g transform="matrix(2.46281 0 0 2.46505 1065.22 65.2174)"><path d="M323.000,273.022 A175.500,215.000 0.000 1,0 323.000,702.978" fill-rule="evenodd" class="ps0"/><polyline points="318,273 482,274 782,273" class="ps0"/><polyline points="318,703 482,702 782,703" class="ps0"/><path d="M782.000,702.968 A175.000,215.000 0.000 0,0 782.000,273.032" fill-rule="evenodd" class="ps0"/><polyline points="158,704 941,704" class="ps0"/><ellipse cx="222" cy="764" rx="64" ry="60" class="ps0"/><ellipse cx="874" cy="764" rx="64" ry="60" class="ps0"/><text x="550" y="465" dy="1em" class="ts0">SPT</text><text x="550" y="272" dy="1em" class="ts1">MSL</text></g></g></g></svg>