<svg version="1.1" baseProfile="full" xmlns="http://www.w3.org/2000/svg" xmlns:xlink="http://www.w3.org/1999/xlink" xmlns:rdf="http://www.w3.org/1999/02/22-rdf-syntax-ns#" xmlns:dc="http://purl.org/dc/elements/1.1/" stroke-linecap="round" stroke-linejoin="round" fill-rule="evenodd" width="250" height="150" viewBox="0 0 5000 3000"><metadata><rdf:RDF><rdf:Description><dc:description>MSS/MilX-Export to SVG</dc:description><dc:publisher>gs-soft AG</dc:publisher></rdf:Description></rdf:RDF></metadata><defs><filter id="ef0" x="-30%" y="-30%" width="200%" height="200%"><feGaussianBlur in="SourceAlpha" stdDeviation="40" result="gb"/><feFlood result="fl" flood-color="gray"/><feComposite result="cm" in="fl" in2="gb" operator="in"/><feOffset in="cm" dx="76" dy="76"/></filter><mask id="cr0" maskUnits="userSpaceOnUse" x="0" y="0" width="5000" height="3000" fill-rule="nonzero"><use xlink:href="#cp0" fill="white"/></mask><polygon id="cp0" points="1505,974 3363,974 3363,2832 1505,2832" shape-rendering="crispEdges"/><style type="text/css">.ss0 {fill:rgb(170,255,170);stroke:black;stroke-width:40;}.ps0 {fill:none;stroke:black;stroke-width:26;}.ps1 {fill:none;stroke:black;stroke-width:300;stroke-dasharray:600,600;}.ts0 {font-family:Arial;font-size:333px;font-weight:bold;fill:black;text-anchor:middle;}</style></defs><g><use xlink:href="#eg0" style="filter:url(#ef0)"/></g><g id="eg0"><g transform="matrix(1.69113 0 0 1.69242 1504.78 973.881)"><rect x="0" y="0" width="1100" height="1100" class="ss0"/></g><g mask="url(#cr0)"><g transform="matrix(1.69113 0 0 1.69242 1504.78 973.881)"><path d="M330.000,305.033 A170.000,209.000 0.000 1,0 330.000,722.967" fill-rule="evenodd" class="ps0"/><polyline points="324,305 484,306 775,305" class="ps0"/><polyline points="324,723 484,722 775,723" class="ps0"/><path d="M775.000,722.978 A170.500,209.000 0.000 0,0 775.000,305.022" fill-rule="evenodd" class="ps0"/><polyline points="158,724 941,724" class="ps0"/><ellipse cx="222" cy="785" rx="64" ry="61" class="ps0"/><ellipse cx="874" cy="785" rx="64" ry="61" class="ps0"/><text x="550" y="326" dy="1em" class="ts0">A</text></g></g><g transform="matrix(0.223913 0 0 0.223881 1460 0)"><polyline points="200,4350 4350,200 8500,4350" class="ps1"/></g></g></svg>