<svg version="1.1" baseProfile="full" xmlns="http://www.w3.org/2000/svg" xmlns:xlink="http://www.w3.org/1999/xlink" xmlns:rdf="http://www.w3.org/1999/02/22-rdf-syntax-ns#" xmlns:dc="http://purl.org/dc/elements/1.1/" stroke-linecap="round" stroke-linejoin="round" fill-rule="evenodd" width="250" height="150" viewBox="0 0 5000 3000"><metadata><rdf:RDF><rdf:Description><dc:description>MSS/MilX-Export to SVG</dc:description><dc:publisher>gs-soft AG</dc:publisher></rdf:Description></rdf:RDF></metadata><defs><filter id="ef0" x="-30%" y="-30%" width="200%" height="200%"><feGaussianBlur in="SourceAlpha" stdDeviation="40" result="gb"/><feFlood result="fl" flood-color="gray"/><feComposite result="cm" in="fl" in2="gb" operator="in"/><feOffset in="cm" dx="76" dy="76"/></filter><g id="co0"><use xlink:href="#cp0"/><use xlink:href="#cp1"/></g><g id="co1"><use xlink:href="#co0"/><use xlink:href="#cp2"/></g><g id="co2"><use xlink:href="#co1"/><use xlink:href="#cp3"/></g><g id="co3"><use xlink:href="#co2"/><use xlink:href="#cp2"/></g><mask id="cr0" maskUnits="userSpaceOnUse" x="0" y="0" width="5000" height="3000" fill-rule="nonzero"><use xlink:href="#co3" fill="white"/></mask><ellipse id="cp0" cx="28" cy="65" rx="28" ry="32" transform="matrix(28.0328 0 0 28.0374 836.066 56.0748)"/><ellipse id="cp1" cx="85" cy="65" rx="28" ry="32" transform="matrix(28.0328 0 0 28.0374 836.066 56.0748)"/><ellipse id="cp2" cx="56" cy="33" rx="28" ry="33" transform="matrix(28.0328 0 0 28.0374 836.066 56.0748)"/><polygon id="cp3" points="1621,981 3219,981 3219,2804 1621,2804" shape-rendering="crispEdges"/><style type="text/css">.bs0 {fill:rgb(255,255,128);stroke:none;}.bs1 {fill:black;stroke:none;}.ps0 {fill:none;stroke:black;stroke-width:40;}.bs2 {fill:black;stroke:none;}.ps1 {fill:none;stroke:black;stroke-width:26;}</style></defs><g><use xlink:href="#eg0" style="filter:url(#ef0)"/></g><g id="eg0"><g transform="matrix(2.11758 0 0 2.11929 836.066 56.0748)"><ellipse cx="375" cy="866" rx="375" ry="433" class="bs0"/><ellipse cx="1125" cy="866" rx="375" ry="433" class="bs0"/><ellipse cx="750" cy="433" rx="375" ry="433" class="bs0"/><rect x="375" y="433" width="750" height="867" class="bs0"/><path d="M1108.378,305.866 A375.000,433.500 0.000 0,0 391.622,305.866Z" fill-rule="evenodd" class="bs1"/><path d="M375.000,433.000 A375.000,433.500 0.000 1,0 375.000,1300.000" fill-rule="evenodd" class="ps0"/><path d="M1125.000,1300.000 A375.000,433.500 0.000 1,0 1125.000,433.000" fill-rule="evenodd" class="ps0"/><path d="M1125.000,433.000 A375.000,433.500 0.000 0,0 375.000,433.000" fill-rule="evenodd" class="ps0"/></g><g mask="url(#cr0)"><g transform="matrix(2.11758 0 0 2.11929 836.066 56.0748)"><polygon points="399,521 399,1053 602,1053 602,521" class="bs2"/><polygon points="655,564 655,1003 845,1003 845,564" class="bs2"/><polygon points="1101,521 1101,1053 899,1053 899,521" class="bs2"/><polyline points="567,788 677,788" class="ps1"/><polyline points="823,788 933,788" class="ps1"/><polyline points="750,1003 750,1103" class="ps1"/><path d="M939.896,1136.237 A512.000,466.000 0.000 0,0 560.104,1136.237" fill-rule="evenodd" class="ps1"/></g></g></g></svg>