<svg version="1.1" baseProfile="full" xmlns="http://www.w3.org/2000/svg" xmlns:xlink="http://www.w3.org/1999/xlink" xmlns:rdf="http://www.w3.org/1999/02/22-rdf-syntax-ns#" xmlns:dc="http://purl.org/dc/elements/1.1/" stroke-linecap="round" stroke-linejoin="round" fill-rule="evenodd" width="250" height="150" viewBox="0 0 5000 3000"><metadata><rdf:RDF><rdf:Description><dc:description>MSS/MilX-Export to SVG</dc:description><dc:publisher>gs-soft AG</dc:publisher></rdf:Description></rdf:RDF></metadata><defs><filter id="ef0" x="-30%" y="-30%" width="200%" height="200%"><feGaussianBlur in="SourceAlpha" stdDeviation="40" result="gb"/><feFlood result="fl" flood-color="gray"/><feComposite result="cm" in="fl" in2="gb" operator="in"/><feOffset in="cm" dx="76" dy="76"/></filter><g id="co0"><use xlink:href="#cp0"/><use xlink:href="#cp1"/></g><g id="co1"><use xlink:href="#co0"/><use xlink:href="#cp2"/></g><g id="co2"><use xlink:href="#co1"/><use xlink:href="#cp3"/></g><g id="co3"><use xlink:href="#co2"/><use xlink:href="#cp4"/></g><mask id="cr0" maskUnits="userSpaceOnUse" x="0" y="0" width="5000" height="3000" fill-rule="nonzero"><use xlink:href="#co3" fill="white"/></mask><ellipse id="cp0" cx="26" cy="67" rx="26" ry="26" transform="matrix(23.1034 0 0 23.0769 1206.21 46.1538)"/><ellipse id="cp1" cx="80" cy="67" rx="27" ry="26" transform="matrix(23.1034 0 0 23.0769 1206.21 46.1538)"/><ellipse id="cp2" cx="53" cy="40" rx="26" ry="26" transform="matrix(23.1034 0 0 23.0769 1206.21 46.1538)"/><ellipse id="cp3" cx="53" cy="94" rx="26" ry="27" transform="matrix(23.1034 0 0 23.0769 1206.21 46.1538)"/><polygon id="cp4" points="1830,992 3054,992 3054,2215 1830,2215" shape-rendering="crispEdges"/><style type="text/css">.bs0 {fill:rgb(255,255,128);stroke:none;}.ps0 {fill:none;stroke:black;stroke-width:40;}.bs1 {fill:black;stroke:none;}.ps1 {fill:none;stroke:black;stroke-width:26;}</style></defs><g><use xlink:href="#eg0" style="filter:url(#ef0)"/></g><g id="eg0"><g transform="matrix(1.74516 0 0 1.74439 1206.21 368.077)"><ellipse cx="353" cy="707" rx="353" ry="353" class="bs0"/><ellipse cx="1060" cy="707" rx="353" ry="353" class="bs0"/><ellipse cx="707" cy="353" rx="353" ry="353" class="bs0"/><ellipse cx="707" cy="1060" rx="353" ry="353" class="bs0"/><rect x="354" y="354" width="707" height="707" class="bs0"/><path d="M354.000,354.000 A353.500,353.500 0.000 1,0 354.000,1061.000" fill-rule="evenodd" class="ps0"/><path d="M1061.000,1061.000 A353.500,353.500 0.000 0,0 1061.000,354.000" fill-rule="evenodd" class="ps0"/><path d="M1061.000,354.000 A353.500,353.500 0.000 1,0 354.000,354.000" fill-rule="evenodd" class="ps0"/><path d="M354.000,1061.000 A353.500,353.500 0.000 0,0 1061.000,1061.000" fill-rule="evenodd" class="ps0"/></g><g transform="matrix(20 0 0 20 0 0)"><path d="M103,25 103,2 141,2 141,25 A30.612,30.577 0.000 0,0 102.918,25.219 Z" fill-rule="evenodd" class="bs1"/></g><g mask="url(#cr0)"><g transform="matrix(1.74516 0 0 1.74439 1206.21 368.077)"><polyline points="344,452 1070,963" class="ps1"/><polyline points="1070,452 344,963" class="ps1"/></g></g></g></svg>