<svg version="1.1" baseProfile="full" xmlns="http://www.w3.org/2000/svg" xmlns:xlink="http://www.w3.org/1999/xlink" xmlns:rdf="http://www.w3.org/1999/02/22-rdf-syntax-ns#" xmlns:dc="http://purl.org/dc/elements/1.1/" stroke-linecap="round" stroke-linejoin="round" fill-rule="evenodd" width="250" height="150" viewBox="0 0 5000 3000"><metadata><rdf:RDF><rdf:Description><dc:description>MSS/MilX-Export to SVG</dc:description><dc:publisher>gs-soft AG</dc:publisher></rdf:Description></rdf:RDF></metadata><defs><filter id="ef0" x="-30%" y="-30%" width="200%" height="200%"><feGaussianBlur in="SourceAlpha" stdDeviation="40" result="gb"/><feFlood result="fl" flood-color="gray"/><feComposite result="cm" in="fl" in2="gb" operator="in"/><feOffset in="cm" dx="76" dy="76"/></filter><g id="co0"><use xlink:href="#cp0"/><use xlink:href="#cp1"/></g><g id="co1"><use xlink:href="#co0"/><use xlink:href="#cp2"/></g><g id="co2"><use xlink:href="#co1"/><use xlink:href="#cp3"/></g><mask id="cr0" maskUnits="userSpaceOnUse" x="0" y="0" width="5000" height="3000" fill-rule="nonzero"><use xlink:href="#co2" fill="white"/></mask><ellipse id="cp0" cx="28" cy="65" rx="28" ry="32" transform="matrix(28.0328 0 0 28.0374 836.066 56.0748)"/><ellipse id="cp1" cx="85" cy="65" rx="28" ry="32" transform="matrix(28.0328 0 0 28.0374 836.066 56.0748)"/><ellipse id="cp2" cx="56" cy="33" rx="28" ry="33" transform="matrix(28.0328 0 0 28.0374 836.066 56.0748)"/><polygon id="cp3" points="1621,981 3219,981 3219,2804 1621,2804" shape-rendering="crispEdges"/><style type="text/css">.bs0 {fill:rgb(255,255,128);stroke:none;}.ps0 {fill:none;stroke:black;stroke-width:40;}.bs1 {fill:black;stroke:none;}.ts0 {font-family:Arial;font-size:284px;font-weight:bold;fill:black;text-anchor:middle;}</style></defs><g><use xlink:href="#eg0" style="filter:url(#ef0)"/></g><g id="eg0"><g transform="matrix(2.11758 0 0 2.11929 836.066 56.0748)"><ellipse cx="375" cy="866" rx="375" ry="433" class="bs0"/><ellipse cx="1125" cy="866" rx="375" ry="433" class="bs0"/><ellipse cx="750" cy="433" rx="375" ry="433" class="bs0"/><rect x="375" y="433" width="750" height="867" class="bs0"/><path d="M375.000,433.000 A375.000,433.500 0.000 1,0 375.000,1300.000" fill-rule="evenodd" class="ps0"/><path d="M1125.000,1300.000 A375.000,433.500 0.000 1,0 1125.000,433.000" fill-rule="evenodd" class="ps0"/><path d="M1125.000,433.000 A375.000,433.500 0.000 0,0 375.000,433.000" fill-rule="evenodd" class="ps0"/></g><g mask="url(#cr0)"><g transform="matrix(2.11758 0 0 2.11929 836.066 56.0748)"><polygon points="1133,1026 1133,581 368,1026 368,581" class="bs1"/><text x="750" y="323" dy="1em" class="ts0">SOF</text></g></g></g></svg>