<svg version="1.1" baseProfile="full" xmlns="http://www.w3.org/2000/svg" xmlns:xlink="http://www.w3.org/1999/xlink" xmlns:rdf="http://www.w3.org/1999/02/22-rdf-syntax-ns#" xmlns:dc="http://purl.org/dc/elements/1.1/" stroke-linecap="round" stroke-linejoin="round" fill-rule="evenodd" width="250" height="150" viewBox="0 0 5000 3000"><metadata><rdf:RDF><rdf:Description><dc:description>MSS/MilX-Export to SVG</dc:description><dc:publisher>gs-soft AG</dc:publisher></rdf:Description></rdf:RDF></metadata><defs><filter id="ef0" x="-30%" y="-30%" width="200%" height="200%"><feGaussianBlur in="SourceAlpha" stdDeviation="40" result="gb"/><feFlood result="fl" flood-color="gray"/><feComposite result="cm" in="fl" in2="gb" operator="in"/><feOffset in="cm" dx="76" dy="76"/></filter><g id="co0"><use xlink:href="#cp0"/><use xlink:href="#cp1"/></g><g id="co1"><use xlink:href="#co0"/><use xlink:href="#cp2"/></g><g id="co2"><use xlink:href="#co1"/><use xlink:href="#cp3"/></g><g id="co3"><use xlink:href="#co2"/><use xlink:href="#cp4"/></g><mask id="cr0" maskUnits="userSpaceOnUse" x="0" y="0" width="5000" height="3000" fill-rule="nonzero"><use xlink:href="#co3" fill="white"/></mask><ellipse id="cp0" cx="26" cy="53" rx="26" ry="26" transform="matrix(25.8621 0 0 25.8621 1051.72 51.7241)"/><ellipse id="cp1" cx="80" cy="53" rx="27" ry="26" transform="matrix(25.8621 0 0 25.8621 1051.72 51.7241)"/><ellipse id="cp2" cx="53" cy="26" rx="26" ry="26" transform="matrix(25.8621 0 0 25.8621 1051.72 51.7241)"/><ellipse id="cp3" cx="53" cy="80" rx="26" ry="27" transform="matrix(25.8621 0 0 25.8621 1051.72 51.7241)"/><polygon id="cp4" points="1750,750 3121,750 3121,2121 1750,2121" shape-rendering="crispEdges"/><style type="text/css">.bs0 {fill:rgb(255,255,128);stroke:none;}.ps0 {fill:none;stroke:black;stroke-width:40;}.ss0 {fill:white;stroke:white;stroke-width:26;}.ps1 {fill:none;stroke:black;stroke-width:26;}</style></defs><g><use xlink:href="#eg0" style="filter:url(#ef0)"/></g><g id="eg0"><g transform="matrix(1.95354 0 0 1.95492 1051.72 51.7241)"><ellipse cx="353" cy="707" rx="353" ry="353" class="bs0"/><ellipse cx="1060" cy="707" rx="353" ry="353" class="bs0"/><ellipse cx="707" cy="353" rx="353" ry="353" class="bs0"/><ellipse cx="707" cy="1060" rx="353" ry="353" class="bs0"/><rect x="354" y="354" width="707" height="707" class="bs0"/><path d="M354.000,354.000 A353.500,353.500 0.000 1,0 354.000,1061.000" fill-rule="evenodd" class="ps0"/><path d="M1061.000,1061.000 A353.500,353.500 0.000 0,0 1061.000,354.000" fill-rule="evenodd" class="ps0"/><path d="M1061.000,354.000 A353.500,353.500 0.000 1,0 354.000,354.000" fill-rule="evenodd" class="ps0"/><path d="M354.000,1061.000 A353.500,353.500 0.000 0,0 1061.000,1061.000" fill-rule="evenodd" class="ps0"/></g><g mask="url(#cr0)"><g transform="matrix(1.95354 0 0 1.95492 1051.72 51.7241)"><polygon points="594,480 1084,480 1084,707 1084,707 1084,933 329,933 329,707 594,707 594,480" class="ss0"/><path d="M888.000,932.000 A89.000,89.000 0.000 1,0 1066.000,932.000Z" fill-rule="evenodd" class="ss0"/><path d="M344.000,932.000 A89.500,89.000 0.000 1,0 523.000,932.000Z" fill-rule="evenodd" class="ss0"/><polyline points="343,933 329,933 329,707 594,707 594,480 1084,480 1084,933 1068,933" class="ps1"/><polyline points="526,933 888,933" class="ps1"/><polyline points="631,518 782,518 782,707 631,707 631,518" class="ps1"/><path d="M344.000,932.000 A89.500,89.000 0.000 1,0 523.000,932.000" fill-rule="evenodd" class="ps1"/><path d="M523.000,932.000 A89.500,89.000 0.000 1,0 344.000,932.000" fill-rule="evenodd" class="ps1"/><path d="M888.000,932.000 A89.000,89.000 0.000 1,0 1066.000,932.000" fill-rule="evenodd" class="ps1"/><path d="M1066.000,932.000 A89.000,89.000 0.000 1,0 888.000,932.000" fill-rule="evenodd" class="ps1"/><polyline points="707,708 707,928" class="ps1"/></g></g></g></svg>